<svg xmlns="http://www.w3.org/2000/svg" viewBox="0 0 242.1 249.97"><defs><style>.cls-1{fill:none;stroke:#000;stroke-miterlimit:10;}</style></defs><title>Asset 1</title><g id="Layer_2" data-name="Layer 2"><g id="Layer_3" data-name="Layer 3"><path class="cls-1" d="M217.41,71h0C200.08,29.29,163.27.5,120.68.5S41.28,29.29,24,71h0q-1.75,4.22-3.24,8.61c0,.06,0,.12,0,.18.59,12.32,1,28.36,1,45.89,0,16.56-.32,31.79-.86,43.82,0,.33,0,.65-.05,1A130.39,130.39,0,0,0,35.6,200.85c1,1.52,2,3,3.11,4.46a6.48,6.48,0,0,0,7.2-.41,38.83,38.83,0,0,1,2.36-3.47c3.77-5,7.82-7.72,12-7.72,3,0,5.92,1.37,8.71,4l0,0A27.2,27.2,0,0,1,72,200.92l0,0q3.17,3.31,6.45,6.2c12.78,11.24,27.11,17.54,42.25,17.54s29.47-6.3,42.25-17.54q3.27-2.86,6.41-6.16l.06-.07a27.2,27.2,0,0,1,2.92-3.21l0,0c2.79-2.6,5.71-4,8.71-4,4,0,7.91,2.48,11.54,7.07a42,42,0,0,1,3.11,4.53,6.45,6.45,0,0,0,3.3.9,6.53,6.53,0,0,0,4-1.37c.75-1,1.48-2.08,2.19-3.14a130,130,0,0,0,15.4-31.18v0c0-.52-.05-1-.07-1.57-.53-11.94-.84-26.93-.84-43.22,0-17.25.35-33.06.93-45.3,0-.26,0-.52,0-.77v0C219.66,76.69,218.58,73.84,217.41,71Zm-17.29,72.18c-4.6,0-9,.26-13.15.69-3.23.33-6.29.78-9.13,1.34a59.3,59.3,0,0,0-12.51,3.67l-.05,0c-.66.36-1.36.7-2.1,1,0,0,0,0,0,0-9.66,4.39-25.09,7.23-42.47,7.23S87.87,154.37,78.21,150c0,0,0,0,0,0-.74-.33-1.44-.67-2.1-1l0,0a57.43,57.43,0,0,0-11.88-3.55c-2.81-.57-5.86-1-9.08-1.39l-.22,0c-3.74-.4-7.72-.65-11.85-.72l-.78-.21c-7.64-2.19-13.55-7.24-15.7-13.41,0-2.2.09-4.38.18-6.52.07-1.64.16-3.26.26-4.86.09-1.42.19-2.81.3-4.19,1.31-15.67,4.22-28.94,8.07-37.5a132.63,132.63,0,0,1,17.2-5.63c18.55-4.81,42.29-7.7,68.15-7.7,26.12,0,50.06,2.94,68.69,7.84a130.45,130.45,0,0,1,17.45,5.82c3.75,8.51,6.59,21.51,7.89,36.83q.31,3.69.5,7.54.27,5.39.29,11C213.16,137.41,207.43,141.44,200.12,143.21Z"/><path class="cls-1" d="M163.68,234.21c0,1.63,0,3.26,0,4.88a97.32,97.32,0,0,1-10.8,4.69,93.79,93.79,0,0,1-64.34,0,96.51,96.51,0,0,1-10.8-4.69c0-1.62,0-3.25,0-4.88,0-7.74.18-15.34.53-22.75.06-1.45.14-2.88.22-4.31,12.78,11.24,27.11,17.54,42.25,17.54s29.47-6.3,42.25-17.54c.08,1.43.16,2.86.22,4.31C163.5,218.87,163.68,226.47,163.68,234.21Z"/><path class="cls-1" d="M241.6,91v67.5a8.12,8.12,0,0,1-7.2,8,9,9,0,0,1-13.42,2.8c-.16-.12-.31-.25-.46-.38-.53-11.94-.84-26.93-.84-43.22,0-17.25.35-33.06.93-45.3l.23-.19a9,9,0,0,1,13.56,2.69,8.13,8.13,0,0,1,7.2,8Z"/><path class="cls-1" d="M21.68,125.71c0,16.56-.32,31.79-.86,43.82a2.11,2.11,0,0,1-.31.21,8.89,8.89,0,0,1-4.91,1.47,9,9,0,0,1-7.9-4.7,8.12,8.12,0,0,1-7.2-8V91a8.13,8.13,0,0,1,7.2-8,8.87,8.87,0,0,1,1.54-2.06,9,9,0,0,1,6.36-2.64,8.9,8.9,0,0,1,5.06,1.57l.06,0C21.31,92.14,21.68,108.18,21.68,125.71Z"/></g></g></svg>