<svg xmlns="http://www.w3.org/2000/svg" viewBox="0 0 242.1 249.97"><defs><style>.cls-1{fill:#fff;}.cls-2{fill:none;stroke:#000;stroke-miterlimit:10;}</style></defs><title>Asset 3</title><g id="Layer_2" data-name="Layer 2"><g id="Layer_3" data-name="Layer 3"><path class="cls-1" d="M20.72,79.82c.59,12.32,1,28.36,1,45.89,0,1.31,0,2.6,0,3.89,0,15.05-.35,28.85-.85,39.93a2.11,2.11,0,0,1-.31.21,8.89,8.89,0,0,1-4.91,1.47,9,9,0,0,1-7.9-4.7,8.12,8.12,0,0,1-7.2-8V91a8.13,8.13,0,0,1,7.2-8,8.87,8.87,0,0,1,1.54-2.06,9,9,0,0,1,6.36-2.64,8.9,8.9,0,0,1,5.06,1.57Z"/><path class="cls-1" d="M234.4,166.51a9,9,0,0,1-13.42,2.8c-.16-.12-.31-.25-.46-.38-.46-10.32-.75-22.92-.83-36.68,0-2.15,0-4.33,0-6.54,0-17.25.35-33.06.93-45.3l.23-.19a9,9,0,0,1,13.56,2.69,8.13,8.13,0,0,1,7.2,8v67.5A8.12,8.12,0,0,1,234.4,166.51Z"/><path class="cls-1" d="M120.68,224.69c15.14,0,29.47-6.3,42.25-17.54.08,1.43.16,2.86.22,4.31.35,7.41.53,15,.53,22.75,0,1.63,0,3.26,0,4.88a97.32,97.32,0,0,1-10.8,4.69,93.79,93.79,0,0,1-64.34,0,96.51,96.51,0,0,1-10.8-4.69c0-1.62,0-3.25,0-4.88,0-7.74.18-15.34.53-22.75.06-1.45.14-2.88.22-4.31C91.21,218.39,105.54,224.69,120.68,224.69Z"/><path class="cls-1" d="M48.27,201.43a38.83,38.83,0,0,0-2.36,3.47,6.48,6.48,0,0,1-7.2.41c-1.07-1.46-2.11-2.94-3.11-4.46A130.39,130.39,0,0,1,20.77,170.5c0-.32,0-.64.05-1,.5-11.08.81-24.88.85-39.93h4.85c2.15,6.17,8.06,11.22,15.7,13.41l.78.21c4.13.07,8.11.32,11.85.72l.22,0c3.22.35,6.27.82,9.08,1.39A57.43,57.43,0,0,1,76,148.91l0,0c.66.36,1.36.7,2.1,1,0,0,0,0,0,0,9.66,4.39,25.09,7.23,42.47,7.23s32.81-2.84,42.47-7.23c0,0,0,0,0,0,.74-.33,1.44-.67,2.1-1l.05,0a59.3,59.3,0,0,1,12.51-3.67c2.84-.56,5.9-1,9.13-1.34,4.14-.43,8.55-.67,13.15-.69,7.31-1.77,13-5.8,15.38-10.93l4.19,0c.08,13.76.37,26.36.83,36.68,0,.53,0,1,.07,1.57v0a130,130,0,0,1-15.4,31.18c-.71,1.06-1.44,2.11-2.19,3.14a6.53,6.53,0,0,1-4,1.37,6.45,6.45,0,0,1-3.3-.9,42,42,0,0,0-3.11-4.53c-3.63-4.59-7.51-7.07-11.54-7.07-3,0-5.92,1.37-8.71,4l0,0a27.2,27.2,0,0,0-2.92,3.21l-.06.07q-3.15,3.3-6.41,6.16c-12.78,11.24-27.11,17.54-42.25,17.54s-29.47-6.3-42.25-17.54Q75.14,204.27,72,201l0,0A27.2,27.2,0,0,0,69,197.71l0,0c-2.79-2.6-5.71-4-8.71-4C56.09,193.71,52,196.42,48.27,201.43Z"/><path class="cls-1" d="M21.68,125.71c0-17.53-.37-33.57-1-45.89,0-.06,0-.12,0-.18Q22.2,75.24,24,71h0C41.28,29.29,78.08.5,120.68.5S200.08,29.29,217.41,71h0c1.17,2.81,2.25,5.66,3.24,8.59v0c0,.25,0,.51,0,.77-.58,12.24-.93,28.05-.93,45.3,0,2.21,0,4.39,0,6.54l-4.19,0q0-5.66-.29-11-.18-3.85-.5-7.54c-1.3-15.32-4.14-28.32-7.89-36.83a130.45,130.45,0,0,0-17.45-5.82c-18.63-4.9-42.57-7.84-68.69-7.84-25.86,0-49.6,2.89-68.15,7.7a132.63,132.63,0,0,0-17.2,5.63c-3.85,8.56-6.76,21.83-8.07,37.5-.11,1.38-.21,2.77-.3,4.19-.1,1.6-.19,3.22-.26,4.86-.09,2.14-.15,4.32-.18,6.52H21.67C21.68,128.31,21.68,127,21.68,125.71Z"/><path class="cls-2" d="M162.93,207.15q3.27-2.86,6.41-6.16l.06-.07a27.2,27.2,0,0,1,2.92-3.21l0,0c2.79-2.6,5.71-4,8.71-4,4,0,7.91,2.48,11.54,7.07a42,42,0,0,1,3.11,4.53,6.45,6.45,0,0,0,3.3.9,6.53,6.53,0,0,0,4-1.37c.75-1,1.48-2.08,2.19-3.14a130,130,0,0,0,15.4-31.18v0c0-.52-.05-1-.07-1.57"/><path class="cls-2" d="M20.82,169.53c0,.33,0,.65-.05,1A130.39,130.39,0,0,0,35.6,200.85c1,1.52,2,3,3.11,4.46a6.48,6.48,0,0,0,7.2-.41,38.83,38.83,0,0,1,2.36-3.47c3.77-5,7.82-7.72,12-7.72,3,0,5.92,1.37,8.71,4l0,0A27.2,27.2,0,0,1,72,200.92l0,0q3.17,3.31,6.45,6.2"/><path class="cls-2" d="M220.61,80.41c0-.26,0-.52,0-.77v0c-1-2.93-2.07-5.78-3.24-8.59h0C200.08,29.29,163.27.5,120.68.5S41.28,29.29,24,71h0q-1.75,4.22-3.24,8.61c0,.06,0,.12,0,.18"/><path class="cls-2" d="M215.5,132.28c-2.34,5.13-8.07,9.16-15.38,10.93-4.6,0-9,.26-13.15.69-3.23.33-6.29.78-9.13,1.34a59.3,59.3,0,0,0-12.51,3.67l-.05,0c-.66.36-1.36.7-2.1,1,0,0,0,0,0,0-9.66,4.39-25.09,7.23-42.47,7.23S87.87,154.37,78.21,150c0,0,0,0,0,0-.74-.33-1.44-.67-2.1-1l0,0a57.43,57.43,0,0,0-11.88-3.55c-2.81-.57-5.86-1-9.08-1.39l-.22,0c-3.74-.4-7.72-.65-11.85-.72l-.78-.21c-7.64-2.19-13.55-7.24-15.7-13.41,0-2.2.09-4.38.18-6.52.07-1.64.16-3.26.26-4.86.09-1.42.19-2.81.3-4.19,1.31-15.67,4.22-28.94,8.07-37.5a132.63,132.63,0,0,1,17.2-5.63c18.55-4.81,42.29-7.7,68.15-7.7,26.12,0,50.06,2.94,68.69,7.84a130.45,130.45,0,0,1,17.45,5.82c3.75,8.51,6.59,21.51,7.89,36.83q.31,3.69.5,7.54Q215.48,126.63,215.5,132.28Z"/><path class="cls-2" d="M162.93,207.15c.08,1.43.16,2.86.22,4.31.35,7.41.53,15,.53,22.75,0,1.63,0,3.26,0,4.88a97.32,97.32,0,0,1-10.8,4.69,93.79,93.79,0,0,1-64.34,0,96.51,96.51,0,0,1-10.8-4.69c0-1.62,0-3.25,0-4.88,0-7.74.18-15.34.53-22.75.06-1.45.14-2.88.22-4.31,12.78,11.24,27.11,17.54,42.25,17.54S150.15,218.39,162.93,207.15Z"/><path class="cls-2" d="M220.61,80.41l.23-.19a9,9,0,0,1,13.56,2.69,8.13,8.13,0,0,1,7.2,8v67.5a8.12,8.12,0,0,1-7.2,8,9,9,0,0,1-13.42,2.8c-.16-.12-.31-.25-.46-.38-.46-10.32-.75-22.92-.83-36.68,0-2.15,0-4.33,0-6.54C219.68,108.46,220,92.65,220.61,80.41Z"/><path class="cls-2" d="M20.72,79.82c.59,12.32,1,28.36,1,45.89,0,1.31,0,2.6,0,3.89,0,15.05-.35,28.85-.85,39.93a2.11,2.11,0,0,1-.31.21,8.89,8.89,0,0,1-4.91,1.47,9,9,0,0,1-7.9-4.7,8.12,8.12,0,0,1-7.2-8V91a8.13,8.13,0,0,1,7.2-8,8.87,8.87,0,0,1,1.54-2.06,9,9,0,0,1,6.36-2.64,8.9,8.9,0,0,1,5.06,1.57Z"/></g></g></svg>