<svg xmlns="http://www.w3.org/2000/svg" viewBox="0 0 250.26 249.97"><defs><style>.cls-1{fill:#2ad3d3;}.cls-2{fill:#65c8d0;}.cls-3{fill:#26cdd1;}.cls-4{fill:#e5e5e5;}.cls-5{fill:#404949;}.cls-6{fill:#d8d8d8;}.cls-7{fill:none;stroke:#000;stroke-miterlimit:10;}</style></defs><title>Asset 2</title><g id="Layer_2" data-name="Layer 2"><g id="Layer_2-2" data-name="Layer 2"><path class="cls-1" d="M249.75,124.85c0,.89,0,1.77,0,2.65-.48,17.41-7.56,33.83-19.79,48.36-1.72.14-3.44.29-5.18.42l-.87.07c.13-.32.25-.63.37-.95s.33-.88.49-1.32c.34-.92.67-1.83,1-2.76h0q1.42-4.12,2.61-8.4c.14-.53.29-1.06.42-1.6s.26-1,.39-1.5c.06-.21.11-.43.16-.65.22-.88.42-1.75.62-2.64s.43-2,.63-2.93c0-.13.06-.27.08-.4.14-.66.26-1.33.38-2s.21-1.08.29-1.62.16-.9.23-1.35.18-1.07.25-1.61.17-1.07.24-1.61.11-.8.16-1.21c.12-.89.23-1.78.32-2.68a.15.15,0,0,0,0-.07c.11-.9.2-1.81.28-2.73l.06-.62q.1-1.17.18-2.34l.06-.84.09-1.53q.06-.94.09-1.89.06-1.43.09-2.85c0-1.08,0-2.17,0-3.26s0-2.16,0-3.24c0-.16,0-.33,0-.49,0-.32,0-.63,0-1,0-.76,0-1.53-.09-2.29s-.08-1.58-.13-2.37c0-.25,0-.49,0-.73s0-.65-.08-1c0-.64-.09-1.27-.15-1.9-.07-.8-.14-1.59-.23-2.38a1.1,1.1,0,0,0,0-.18l-.09-.83c-.06-.53-.12-1-.19-1.57s-.16-1.3-.25-1.94c-.23-1.68-.49-3.35-.79-5-.07-.47-.16-.93-.25-1.4s-.21-1.14-.33-1.71-.23-1.13-.35-1.7c-.4-1.94-.85-3.87-1.34-5.77q-.22-.93-.48-1.83c-.23-.86-.47-1.72-.72-2.57-.13-.43-.25-.88-.39-1.31-.53-1.75-1.09-3.49-1.68-5.2v0c-.34-1-.68-1.93-1-2.89l0,0h.08q3,.23,5.86.48a96.35,96.35,0,0,1,6.69,9.13,78.46,78.46,0,0,1,10.4,23.62A69.2,69.2,0,0,1,249.75,124.85Z"/><path class="cls-2" d="M233.39,121.74c0,1.08,0,2.16,0,3.24s0,2.18,0,3.26,0,1.9-.09,2.85q0,.94-.09,1.89l-.09,1.53-.06.84q-.08,1.17-.18,2.34l-.06.62c-.08.92-.17,1.83-.28,2.73a.15.15,0,0,1,0,.07c-.09.9-.2,1.79-.32,2.68-.05.41-.1.81-.16,1.21s-.15,1.07-.24,1.61-.16,1.08-.25,1.61-.14.9-.23,1.35-.18,1.08-.29,1.62-.24,1.34-.38,2c0,.13,0,.27-.08.4-.2,1-.41,2-.63,2.93s-.4,1.76-.62,2.64c-.05.22-.1.44-.16.65-.13.5-.25,1-.39,1.5s-.28,1.07-.42,1.6q-1.19,4.28-2.61,8.4h0c-.33.93-.66,1.84-1,2.76-.16.44-.32.88-.49,1.32s-.24.63-.37.95h0l-.59.05c.17-.44.33-.88.49-1.32.34-.92.67-1.83,1-2.76h0q1.42-4.12,2.61-8.4c.14-.53.29-1.06.42-1.6s.26-1,.39-1.5c.06-.21.11-.43.16-.65.22-.88.42-1.75.62-2.64s.43-2,.63-2.93c0-.13.06-.27.08-.4.14-.66.26-1.33.38-2s.21-1.08.29-1.62.16-.9.23-1.35.18-1.07.25-1.61.17-1.07.24-1.61.11-.8.16-1.21c.12-.89.23-1.78.32-2.68a.15.15,0,0,0,0-.07c.11-.9.2-1.81.28-2.73l.06-.62q.1-1.17.18-2.34l.06-.84.09-1.53q.06-.94.09-1.89.06-1.43.09-2.85c0-1.08,0-2.17,0-3.26s0-2.16,0-3.24c0-.16,0-.33,0-.49,0-.32,0-.63,0-1,0-.76,0-1.53-.09-2.29s-.08-1.58-.13-2.37c0-.25,0-.49,0-.73s0-.65-.08-1l0-.44c0-.49-.07-1-.12-1.46-.07-.8-.14-1.59-.23-2.38a1.1,1.1,0,0,0,0-.18l-.09-.83c-.06-.53-.12-1-.19-1.57s-.16-1.3-.25-1.94c-.23-1.68-.49-3.35-.79-5-.07-.47-.16-.93-.25-1.4s-.21-1.14-.33-1.71-.23-1.13-.35-1.7c-.4-1.94-.85-3.87-1.34-5.77q-.22-.93-.48-1.83c-.23-.86-.47-1.72-.72-2.57-.13-.43-.25-.88-.39-1.31-.53-1.75-1.09-3.49-1.68-5.2v0c-.34-1-.68-1.93-1-2.89-.14-.39-.28-.77-.43-1.16l.52,0,.89.07,0,0c.36,1,.7,1.92,1,2.89v0c.59,1.71,1.15,3.45,1.68,5.2.14.43.26.88.39,1.31.25.85.49,1.71.72,2.57q.25.9.48,1.83c.49,1.9.94,3.83,1.34,5.77.12.57.24,1.13.35,1.7s.23,1.14.33,1.71.18.93.25,1.4c.3,1.65.56,3.32.79,5,.09.64.17,1.29.25,1.94s.13,1,.19,1.57l.09.83a1.1,1.1,0,0,1,0,.18c.09.79.16,1.58.23,2.38.06.63.11,1.26.15,1.9,0,.33.06.65.08,1s0,.48,0,.73c.05.79.1,1.58.13,2.37s.07,1.53.09,2.29c0,.32,0,.63,0,1C233.39,121.41,233.39,121.58,233.39,121.74Z"/><path class="cls-3" d="M232.39,122.74c0,1.08,0,2.16,0,3.24s0,2.18,0,3.26,0,1.9-.09,2.85q0,.94-.09,1.89l-.09,1.53-.06.84q-.08,1.17-.18,2.34l-.06.62c-.08.92-.17,1.83-.28,2.73a.15.15,0,0,1,0,.07c-.09.9-.2,1.79-.32,2.68-.05.41-.1.81-.16,1.21s-.15,1.07-.24,1.61-.16,1.08-.25,1.61-.14.9-.23,1.35-.18,1.08-.29,1.62-.24,1.34-.38,2c0,.13,0,.27-.08.4-.2,1-.41,2-.63,2.93s-.4,1.76-.62,2.64c-.05.22-.1.44-.16.65-.13.5-.25,1-.39,1.5s-.28,1.07-.42,1.6q-1.19,4.28-2.61,8.4-.08-23.48-.08-47.46v-1q0-22.3.07-44.21c.59,1.71,1.15,3.45,1.68,5.2.14.43.26.88.39,1.31.25.85.49,1.71.72,2.57q.25.9.48,1.83c.49,1.9.94,3.83,1.34,5.77.12.57.24,1.13.35,1.7s.23,1.14.33,1.71.18.93.25,1.4c.3,1.65.56,3.32.79,5,.09.64.17,1.29.25,1.94s.13,1,.19,1.57l.09.83a1.1,1.1,0,0,1,0,.18c.09.79.16,1.58.23,2.38.05.48.09,1,.12,1.46l0,.44c0,.33.06.65.08,1s0,.48,0,.73c.05.79.1,1.58.13,2.37s.07,1.53.09,2.29c0,.32,0,.63,0,1C232.39,122.41,232.39,122.58,232.39,122.74Z"/><path class="cls-2" d="M232,114.49c0-.49-.07-1-.12-1.46C231.9,113.51,231.94,114,232,114.49Z"/><path class="cls-4" d="M224.75,172.31h0c-.33.93-.66,1.84-1,2.76-.16.44-.32.88-.49,1.32l.59-.05h0c-.5,1.3-1,2.58-1.58,3.85-.94,2.24-1.95,4.43-3,6.59a140.3,140.3,0,0,1-15.42,11.89q-3.15,2.12-6.46,4.12c-3.91-5.39-8.12-8.33-12.51-8.33a10.93,10.93,0,0,0-5.49,1.56c-3,1.72-5.92,4.85-8.66,9.21-.78.74-1.57,1.45-2.37,2.15-12.78,11.24-27.11,17.54-42.25,17.54s-29.46-6.3-42.25-17.54c-.69-.59-1.37-1.21-2-1.85a25.23,25.23,0,0,0-6.25-6.36,11.4,11.4,0,0,0-6.33-2.07c-4.09,0-8,2.56-11.71,7.28q-5.09-3-9.78-6.13A140.27,140.27,0,0,1,33,186.78c-1.06-2.15-2.07-4.35-3-6.58q-1-2.37-2-4.8c-.17-.44-.33-.88-.49-1.32-.33-.88-.64-1.76-.95-2.65s-.67-2-1-3q0-21,.06-42.48,0-22.44-.06-44.45c0-.15.08-.29.13-.43.27-.84.55-1.67.84-2.5l0,0c.32-1,.66-1.9,1-2.83.14-.39.28-.77.43-1.16.22-.58.44-1.17.68-1.75L39.47,74a177.83,177.83,0,0,0-7.41,51.2c0,1.6,0,3.19.07,4.78a0,0,0,0,1,0,0,5.86,5.86,0,0,0-.08.94c0,6.2,9.83,11.22,21.95,11.22,1.26,0,2.49-.05,3.68-.16a197.05,197.05,0,0,0,68.44,11.91,197,197,0,0,0,68.47-11.93q1.88.18,3.84.18c12.12,0,21.95-5,21.95-11.22a6.1,6.1,0,0,0-.11-1.13v0c.08-2,.11-3.93.11-5.9h4.28v1Q224.67,148.82,224.75,172.31Z"/><path class="cls-4" d="M224.73,79.62v0q-.08,21.89-.07,44.21h-4.28a178.26,178.26,0,0,0-6.95-49.67c-24.57-8-54.72-12.64-87.31-12.64-32.3,0-62.21,4.6-86.66,12.43l-10.8-1.15c.22-.58.46-1.15.7-1.73q2-4.75,4.28-9.26A119.06,119.06,0,0,1,67.14,21a103.9,103.9,0,0,1,9-6.16,94.54,94.54,0,0,1,100.05,0,107,107,0,0,1,12.28,8.79,120.21,120.21,0,0,1,30.16,38.2c1.55,3,3,6.11,4.29,9.28q.72,1.72,1.38,3.48c.14.37.28.74.41,1.11l-.89-.07-.52,0c.15.39.29.77.43,1.16C224.05,77.69,224.39,78.65,224.73,79.62Z"/><path class="cls-5" d="M220.39,123.85c0,2,0,4-.11,5.9v0a6.1,6.1,0,0,1,.11,1.13c0,6.2-9.83,11.22-21.95,11.22q-2,0-3.84-.18a197,197,0,0,1-68.47,11.93A197.05,197.05,0,0,1,57.69,142c-1.19.11-2.42.16-3.68.16-12.12,0-21.95-5-21.95-11.22a5.86,5.86,0,0,1,.08-.94,0,0,0,0,0,0,0c-.05-1.59-.07-3.18-.07-4.78A177.83,177.83,0,0,1,39.47,74c24.45-7.83,54.36-12.43,86.66-12.43,32.59,0,62.74,4.68,87.31,12.64A178.26,178.26,0,0,1,220.39,123.85Z"/><path class="cls-6" d="M169.13,234.22v.23c0,1.55,0,3.1,0,4.64a97.84,97.84,0,0,1-12.4,5.25,93.7,93.7,0,0,1-59.76.47,98.32,98.32,0,0,1-13.8-5.72c0-1.54,0-3.09,0-4.64v-.23q0-8.81.32-17.35c.09-2.8.22-5.57.36-8.32,0-.39,0-.78.07-1.16,12.79,11.24,27.12,17.54,42.25,17.54s29.47-6.3,42.25-17.54c0,.6.07,1.21.1,1.81.13,2.54.24,5.09.33,7.67Q169.13,225.41,169.13,234.22Z"/><path class="cls-1" d="M27,75.57c-.15.39-.29.77-.43,1.16-.35.93-.69,1.88-1,2.83l0,0c-.29.83-.57,1.66-.84,2.5-.18.54-.35,1.08-.51,1.63-.08.22-.14.45-.21.67,0,0,0,0,0,0s-.07.2-.09.29a.9.9,0,0,0-.06.22l-.09.3c-.13.4-.25.79-.35,1.19-.3,1-.58,2-.83,3-.06.21-.12.42-.17.64-.29,1.08-.56,2.18-.81,3.28-.13.53-.25,1.08-.37,1.63a3.38,3.38,0,0,0-.08.34c-.12.55-.24,1.1-.35,1.65-.63,3-1.15,6.08-1.58,9.18-.09.64-.17,1.29-.25,1.94a3.86,3.86,0,0,0-.06.49c-.14,1.12-.26,2.25-.37,3.38-.05.49-.09,1-.13,1.47-.08.86-.15,1.73-.2,2.6,0,.35-.05.71-.07,1.06,0,.57-.07,1.14-.09,1.72-.06,1.15-.1,2.3-.13,3.46a6.77,6.77,0,0,0,0,.78c0,1,0,2,0,3a141.39,141.39,0,0,0,7.73,46.45c.31.89.62,1.77.95,2.65.16.44.32.88.49,1.32l-.59-.05-.87-.07-5.21-.42C8.09,161.33,1,144.91.53,127.5c0-.88,0-1.76,0-2.65a69.2,69.2,0,0,1,2.05-15.93A78.87,78.87,0,0,1,13,85.29a96.23,96.23,0,0,1,6.69-9.12c2-.17,3.91-.32,5.88-.48l.94-.08Zm-25.49,49q0,.94,0,1.89c0-.88,0-1.76,0-2.65C1.5,124.1,1.5,124.36,1.5,124.61Z"/><path class="cls-3" d="M25.56,81.54q0,22,.06,44.45,0,21.42-.06,42.48A141.78,141.78,0,0,1,18.82,125c0-1,0-2,0-3,0-.26,0-.52,0-.78,0-1.16.07-2.31.13-3.46,0-.58,0-1.15.09-1.72s.07-1.07.11-1.6c.08-1.18.18-2.36.29-3.53s.23-2.26.37-3.38a3.86,3.86,0,0,1,.06-.49c.08-.65.16-1.3.25-1.94.43-3.1.95-6.16,1.58-9.18.11-.55.23-1.1.35-1.65a3.38,3.38,0,0,1,.08-.34c.12-.55.24-1.1.37-1.63.25-1.1.52-2.2.81-3.28.05-.22.11-.43.17-.64.25-1,.53-2,.83-3,.14-.5.29-1,.44-1.49a.9.9,0,0,1,.06-.22,1.61,1.61,0,0,1,.09-.29s0,0,0,0C25.16,82.78,25.35,82.16,25.56,81.54Z"/><path class="cls-7" d="M18.37,113.41c-.07.86-.14,1.73-.2,2.6"/><path class="cls-7" d="M1.53,126.5q0-.94,0-1.89c0-.25,0-.51,0-.76C1.51,124.74,1.51,125.62,1.53,126.5Z"/><path class="cls-7" d="M19.21,114.47c.07-1.18.17-2.36.29-3.53"/><path class="cls-7" d="M168.38,207.39c.8-.7,1.59-1.41,2.37-2.15,2.74-4.36,5.64-7.49,8.66-9.21a10.93,10.93,0,0,1,5.49-1.56c4.39,0,8.6,2.94,12.51,8.33q3.32-2,6.46-4.12a140.3,140.3,0,0,0,15.42-11.89c1.07-2.16,2.08-4.35,3-6.59.55-1.27,1.08-2.55,1.58-3.85.13-.32.25-.63.37-.95s.33-.88.49-1.32c.34-.92.67-1.83,1-2.76h0q1.42-4.12,2.61-8.4c.14-.53.29-1.06.42-1.6s.26-1,.39-1.5c.06-.21.11-.43.16-.65.22-.88.42-1.75.62-2.64s.43-2,.63-2.93c0-.13.06-.27.08-.4.14-.66.26-1.33.38-2s.21-1.08.29-1.62.16-.9.23-1.35.18-1.07.25-1.61.17-1.07.24-1.61.11-.8.16-1.21c.12-.89.23-1.78.32-2.68a.15.15,0,0,0,0-.07c.11-.9.2-1.81.28-2.73l.06-.62q.1-1.17.18-2.34l.06-.84.09-1.53q.06-.94.09-1.89.06-1.43.09-2.85c0-1.08,0-2.17,0-3.26s0-2.16,0-3.24c0-.16,0-.33,0-.49,0-.32,0-.63,0-1,0-.76,0-1.53-.09-2.29s-.08-1.58-.13-2.37c0-.25,0-.49,0-.73s0-.65-.08-1c0-.64-.09-1.27-.15-1.9-.07-.8-.14-1.59-.23-2.38a1.1,1.1,0,0,0,0-.18l-.09-.83c-.06-.53-.12-1-.19-1.57s-.16-1.3-.25-1.94c-.23-1.68-.49-3.35-.79-5-.07-.47-.16-.93-.25-1.4s-.21-1.14-.33-1.71-.23-1.13-.35-1.7c-.4-1.94-.85-3.87-1.34-5.77q-.22-.93-.48-1.83c-.23-.86-.47-1.72-.72-2.57-.13-.43-.25-.88-.39-1.31-.53-1.75-1.09-3.49-1.68-5.2v0c-.34-1-.68-1.93-1-2.89l0,0c-.13-.37-.27-.74-.41-1.11q-.66-1.75-1.38-3.48c-1.32-3.17-2.74-6.27-4.29-9.28a120.21,120.21,0,0,0-30.16-38.2,107,107,0,0,0-12.28-8.79,94.54,94.54,0,0,0-100.05,0,103.9,103.9,0,0,0-9,6.16A119.06,119.06,0,0,0,33.65,61.83q-2.31,4.52-4.28,9.26c-.24.58-.48,1.15-.7,1.73S28.21,74,28,74.57c-.15.39-.29.77-.43,1.16-.35.93-.69,1.88-1,2.83l0,0c-.29.83-.57,1.66-.84,2.5-.05.14-.09.28-.13.43-.21.62-.4,1.24-.59,1.87,0,0,0,0,0,0a1.61,1.61,0,0,0-.09.29.9.9,0,0,0-.06.22c-.15.5-.3,1-.44,1.49-.3,1-.58,2-.83,3-.06.21-.12.42-.17.64-.29,1.08-.56,2.18-.81,3.28-.13.53-.25,1.08-.37,1.63a3.38,3.38,0,0,0-.08.34c-.12.55-.24,1.1-.35,1.65-.63,3-1.15,6.08-1.58,9.18-.09.64-.17,1.29-.25,1.94a3.86,3.86,0,0,0-.06.49c-.14,1.12-.26,2.25-.37,3.38s-.21,2.35-.29,3.53c0,.53-.08,1.06-.11,1.6s-.07,1.14-.09,1.72c-.06,1.15-.1,2.3-.13,3.46,0,.26,0,.52,0,.78,0,1,0,2,0,3a141.78,141.78,0,0,0,6.74,43.49c.32,1,.65,2,1,3s.62,1.77.95,2.65c.16.44.32.88.49,1.32q.93,2.43,2,4.8c.95,2.23,2,4.43,3,6.58a140.27,140.27,0,0,0,14.8,11.48q4.7,3.18,9.78,6.13c3.68-4.72,7.62-7.28,11.71-7.28a11.4,11.4,0,0,1,6.33,2.07,25.23,25.23,0,0,1,6.25,6.36c.68.64,1.36,1.26,2,1.85"/><path class="cls-7" d="M168.38,207.39c0,.6.07,1.21.1,1.81.13,2.54.24,5.09.33,7.67q.31,8.53.32,17.35v.23c0,1.55,0,3.1,0,4.64a97.84,97.84,0,0,1-12.4,5.25,93.7,93.7,0,0,1-59.76.47,98.32,98.32,0,0,1-13.8-5.72c0-1.54,0-3.09,0-4.64v-.23q0-8.81.32-17.35c.09-2.8.22-5.57.36-8.32,0-.39,0-.78.07-1.16,12.79,11.24,27.12,17.54,42.25,17.54S155.6,218.63,168.38,207.39Z"/><path class="cls-7" d="M220.39,123.85c0,2,0,4-.11,5.9v0a6.1,6.1,0,0,1,.11,1.13c0,6.2-9.83,11.22-21.95,11.22q-2,0-3.84-.18a197,197,0,0,1-68.47,11.93A197.05,197.05,0,0,1,57.69,142c-1.19.11-2.42.16-3.68.16-12.12,0-21.95-5-21.95-11.22a5.86,5.86,0,0,1,.08-.94,0,0,0,0,0,0,0c-.05-1.59-.07-3.18-.07-4.78A177.83,177.83,0,0,1,39.47,74c24.45-7.83,54.36-12.43,86.66-12.43,32.59,0,62.74,4.68,87.31,12.64A178.26,178.26,0,0,1,220.39,123.85Z"/><path class="cls-7" d="M17.88,122.25a6.77,6.77,0,0,0,0,.78"/><path class="cls-7" d="M23.72,85.24c-.13.4-.25.79-.35,1.19"/><path class="cls-7" d="M24,84.43c0,.09-.07.2-.09.29"/><path class="cls-7" d="M24.69,82.11c-.18.54-.35,1.08-.51,1.63"/><path class="cls-7" d="M.51,124.85a69.2,69.2,0,0,1,2.05-15.93A78.87,78.87,0,0,1,13,85.29a96.23,96.23,0,0,1,6.69-9.12c2-.17,3.91-.32,5.88-.48l.94-.08.52,0c-.15.39-.29.77-.43,1.16-.35.93-.69,1.88-1,2.83"/><path class="cls-7" d="M25.55,172.43c.31.89.62,1.77.95,2.65.16.44.32.88.49,1.32l-.59-.05-.87-.07-5.21-.42C8.09,161.33,1,144.91.53,127.5"/><path class="cls-7" d="M.53,127.5q0-.94,0-1.89c0-.25,0-.51,0-.76C.51,125.74.51,126.62.53,127.5Z"/><path class="cls-7" d="M25.56,81.54q0,22,.06,44.45,0,21.42-.06,42.48c0,1.32,0,2.64,0,4A141.39,141.39,0,0,1,17.82,126c0-1,0-2,0-3,0-.26,0-.52,0-.78,0-1.16.07-2.31.13-3.46,0-.58,0-1.15.09-1.72,0-.35,0-.71.07-1.06,0-.87.12-1.74.2-2.6,0-.49.08-1,.13-1.47.11-1.13.23-2.26.37-3.38a3.86,3.86,0,0,1,.06-.49c.08-.65.16-1.3.25-1.94.43-3.1.95-6.16,1.58-9.18.11-.55.23-1.1.35-1.65a3.38,3.38,0,0,1,.08-.34c.12-.55.24-1.1.37-1.63.25-1.1.52-2.2.81-3.28.05-.22.11-.43.17-.64.25-1,.53-2,.83-3,.11-.4.23-.79.35-1.19l.09-.3a.9.9,0,0,1,.06-.22,1.61,1.61,0,0,1,.09-.29s0,0,0,0c.07-.22.13-.45.21-.67.16-.55.33-1.09.51-1.63.27-.84.55-1.67.84-2.5l0,0C25.55,80.22,25.55,80.88,25.56,81.54Z"/><path class="cls-7" d="M224.74,79.64v0c-.34-1-.68-1.93-1-2.89-.14-.39-.28-.77-.43-1.16l.52,0,.89.07h.08q3,.23,5.86.48a96.35,96.35,0,0,1,6.69,9.13,78.46,78.46,0,0,1,10.4,23.62,69.2,69.2,0,0,1,2.05,15.93"/><path class="cls-7" d="M232,114.49c0-.49-.07-1-.12-1.46"/><path class="cls-7" d="M249.73,127.5c-.48,17.41-7.56,33.83-19.79,48.36-1.72.14-3.44.29-5.18.42l-.87.07h0l-.59.05c.17-.44.33-.88.49-1.32.34-.92.67-1.83,1-2.76h0"/><path class="cls-7" d="M232,114.49l0,.44c0,.33.06.65.08,1s0,.48,0,.73c.05.79.1,1.58.13,2.37s.07,1.53.09,2.29c0,.32,0,.63,0,1,0,.16,0,.33,0,.49,0,1.08,0,2.16,0,3.24s0,2.18,0,3.26,0,1.9-.09,2.85q0,.94-.09,1.89l-.09,1.53-.06.84q-.08,1.17-.18,2.34l-.06.62c-.08.92-.17,1.83-.28,2.73a.15.15,0,0,1,0,.07c-.09.9-.2,1.79-.32,2.68-.05.41-.1.81-.16,1.21s-.15,1.07-.24,1.61-.16,1.08-.25,1.61-.14.9-.23,1.35-.18,1.08-.29,1.62-.24,1.34-.38,2c0,.13,0,.27-.08.4-.2,1-.41,2-.63,2.93s-.4,1.76-.62,2.64c-.05.22-.1.44-.16.65-.13.5-.25,1-.39,1.5s-.28,1.07-.42,1.6q-1.19,4.28-2.61,8.4-.08-23.48-.08-47.46v-1q0-22.3.07-44.21c.59,1.71,1.15,3.45,1.68,5.2.14.43.26.88.39,1.31.25.85.49,1.71.72,2.57q.25.9.48,1.83c.49,1.9.94,3.83,1.34,5.77.12.57.24,1.13.35,1.7s.23,1.14.33,1.71.18.93.25,1.4c.3,1.65.56,3.32.79,5,.09.64.17,1.29.25,1.94s.13,1,.19,1.57l.09.83a1.1,1.1,0,0,1,0,.18c.09.79.16,1.58.23,2.38C231.9,113.51,231.94,114,232,114.49Z"/><path class="cls-7" d="M249.75,124.85c0,.25,0,.51,0,.76q0,.94,0,1.89C249.75,126.62,249.75,125.74,249.75,124.85Z"/></g></g></svg>